<mxfile host="app.diagrams.net" modified="2023-12-17T23:11:21.091Z" agent="Mozilla/5.0 (Windows NT 10.0; Win64; x64) AppleWebKit/537.36 (KHTML, like Gecko) Chrome/119.0.0.0 Safari/537.36 OPR/105.0.0.0" etag="FKqEKIPjHi4rMgI7v6v2" version="22.1.11" type="device">
  <diagram name="Страница — 1" id="TlpvCRBEFvVNfUS2Vomi">
    <mxGraphModel dx="1641" dy="771" grid="1" gridSize="10" guides="1" tooltips="1" connect="1" arrows="1" fold="1" page="1" pageScale="1" pageWidth="827" pageHeight="1169" math="0" shadow="0">
      <root>
        <mxCell id="0" />
        <mxCell id="1" parent="0" />
        <mxCell id="dUvdXe2ewjB4PR0map2X-9" style="edgeStyle=orthogonalEdgeStyle;rounded=0;orthogonalLoop=1;jettySize=auto;html=1;exitX=0.5;exitY=1;exitDx=0;exitDy=0;" edge="1" parent="1" source="GYAae46NIbWtX9tGU3hh-2" target="GYAae46NIbWtX9tGU3hh-6">
          <mxGeometry relative="1" as="geometry" />
        </mxCell>
        <mxCell id="GYAae46NIbWtX9tGU3hh-2" value="&lt;font style=&quot;font-size: 14px;&quot;&gt;начало&lt;/font&gt;" style="ellipse;whiteSpace=wrap;html=1;" parent="1" vertex="1">
          <mxGeometry x="80" y="60" width="160" height="30" as="geometry" />
        </mxCell>
        <mxCell id="GYAae46NIbWtX9tGU3hh-21" style="edgeStyle=orthogonalEdgeStyle;rounded=0;orthogonalLoop=1;jettySize=auto;html=1;exitX=0.5;exitY=1;exitDx=0;exitDy=0;" parent="1" source="GYAae46NIbWtX9tGU3hh-6" target="GYAae46NIbWtX9tGU3hh-12" edge="1">
          <mxGeometry relative="1" as="geometry" />
        </mxCell>
        <mxCell id="GYAae46NIbWtX9tGU3hh-6" value="&lt;p class=&quot;MsoNormal&quot;&gt;&lt;font style=&quot;font-size: 12px;&quot;&gt;x0 := &lt;span style=&quot;font-family: Consolas; color: darkgreen;&quot; lang=&quot;EN-US&quot;&gt;250&lt;/span&gt;&lt;/font&gt;&lt;/p&gt;&lt;p class=&quot;MsoNormal&quot;&gt;&lt;font style=&quot;font-size: 12px;&quot;&gt;&lt;span style=&quot;font-family: Consolas; color: darkgreen;&quot; lang=&quot;EN-US&quot;&gt;y0 := &lt;span style=&quot;&quot; lang=&quot;EN-US&quot;&gt;250&lt;/span&gt;&lt;br&gt;&lt;/span&gt;&lt;/font&gt;&lt;/p&gt;" style="rounded=0;whiteSpace=wrap;html=1;" parent="1" vertex="1">
          <mxGeometry x="80" y="130" width="160" height="40" as="geometry" />
        </mxCell>
        <mxCell id="GYAae46NIbWtX9tGU3hh-28" style="edgeStyle=orthogonalEdgeStyle;rounded=0;orthogonalLoop=1;jettySize=auto;html=1;exitX=0.5;exitY=1;exitDx=0;exitDy=0;entryX=0.5;entryY=0;entryDx=0;entryDy=0;" parent="1" source="GYAae46NIbWtX9tGU3hh-7" target="GYAae46NIbWtX9tGU3hh-13" edge="1">
          <mxGeometry relative="1" as="geometry" />
        </mxCell>
        <mxCell id="GYAae46NIbWtX9tGU3hh-7" value="&lt;p class=&quot;MsoNormal&quot;&gt;&lt;font style=&quot;font-size: 11px;&quot;&gt;Line(x0, &lt;span style=&quot;font-family:Consolas;mso-bidi-font-family:Consolas;color:darkgreen;&lt;br/&gt;mso-ansi-language:EN-US&quot; lang=&quot;EN-US&quot;&gt;900&lt;/span&gt;&lt;span style=&quot;font-family: Consolas;&quot; lang=&quot;EN-US&quot;&gt;, x0, -&lt;/span&gt;&lt;span style=&quot;font-family:Consolas;mso-bidi-font-family:Consolas;&lt;br/&gt;color:darkgreen;mso-ansi-language:EN-US&quot; lang=&quot;EN-US&quot;&gt;900&lt;/span&gt;&lt;span style=&quot;font-family: Consolas;&quot; lang=&quot;EN-US&quot;&gt;)&lt;/span&gt;&lt;/font&gt;&lt;/p&gt;" style="shape=parallelogram;perimeter=parallelogramPerimeter;whiteSpace=wrap;html=1;fixedSize=1;" parent="1" vertex="1">
          <mxGeometry x="80" y="592.5" width="160" height="35" as="geometry" />
        </mxCell>
        <mxCell id="GYAae46NIbWtX9tGU3hh-27" style="edgeStyle=orthogonalEdgeStyle;rounded=0;orthogonalLoop=1;jettySize=auto;html=1;exitX=0.5;exitY=1;exitDx=0;exitDy=0;entryX=0.5;entryY=0;entryDx=0;entryDy=0;" parent="1" source="GYAae46NIbWtX9tGU3hh-8" target="GYAae46NIbWtX9tGU3hh-7" edge="1">
          <mxGeometry relative="1" as="geometry" />
        </mxCell>
        <mxCell id="GYAae46NIbWtX9tGU3hh-8" value="&lt;p class=&quot;MsoNormal&quot;&gt;&lt;font style=&quot;font-size: 11px;&quot;&gt;Line(-&lt;span style=&quot;font-family:Consolas;mso-bidi-font-family:Consolas;color:darkgreen;&lt;br/&gt;mso-ansi-language:EN-US&quot; lang=&quot;EN-US&quot;&gt;900&lt;/span&gt;&lt;span style=&quot;font-family: Consolas;&quot; lang=&quot;EN-US&quot;&gt;, y0, &lt;/span&gt;&lt;span style=&quot;font-family:Consolas;mso-bidi-font-family:Consolas;&lt;br/&gt;color:darkgreen;mso-ansi-language:EN-US&quot; lang=&quot;EN-US&quot;&gt;900&lt;/span&gt;&lt;span style=&quot;font-family: Consolas;&quot; lang=&quot;EN-US&quot;&gt;, y0)&lt;/span&gt;&lt;/font&gt;&lt;/p&gt;" style="shape=parallelogram;perimeter=parallelogramPerimeter;whiteSpace=wrap;html=1;fixedSize=1;" parent="1" vertex="1">
          <mxGeometry x="80" y="510" width="160" height="35" as="geometry" />
        </mxCell>
        <mxCell id="GYAae46NIbWtX9tGU3hh-25" style="edgeStyle=orthogonalEdgeStyle;rounded=0;orthogonalLoop=1;jettySize=auto;html=1;exitX=0.5;exitY=1;exitDx=0;exitDy=0;" parent="1" source="GYAae46NIbWtX9tGU3hh-9" target="GYAae46NIbWtX9tGU3hh-8" edge="1">
          <mxGeometry relative="1" as="geometry" />
        </mxCell>
        <mxCell id="GYAae46NIbWtX9tGU3hh-9" value="&lt;p class=&quot;MsoNormal&quot;&gt;MoveTo(x0, y0);&lt;/p&gt;" style="shape=parallelogram;perimeter=parallelogramPerimeter;whiteSpace=wrap;html=1;fixedSize=1;" parent="1" vertex="1">
          <mxGeometry x="80" y="430" width="160" height="30" as="geometry" />
        </mxCell>
        <mxCell id="GYAae46NIbWtX9tGU3hh-24" style="edgeStyle=orthogonalEdgeStyle;rounded=0;orthogonalLoop=1;jettySize=auto;html=1;exitX=0.5;exitY=1;exitDx=0;exitDy=0;entryX=0.5;entryY=0;entryDx=0;entryDy=0;" parent="1" source="GYAae46NIbWtX9tGU3hh-10" target="GYAae46NIbWtX9tGU3hh-9" edge="1">
          <mxGeometry relative="1" as="geometry" />
        </mxCell>
        <mxCell id="GYAae46NIbWtX9tGU3hh-10" value="SetPenWidth(&lt;span style=&quot;font-size:12.0pt;font-family:Consolas;mso-fareast-font-family:Calibri;&lt;br/&gt;mso-fareast-theme-font:minor-latin;mso-bidi-font-family:Consolas;color:darkgreen;&lt;br/&gt;mso-ansi-language:EN-US;mso-fareast-language:EN-US;mso-bidi-language:AR-SA&quot; lang=&quot;EN-US&quot;&gt;3&lt;/span&gt;&lt;span style=&quot;font-size: 12pt; font-family: Consolas;&quot; lang=&quot;EN-US&quot;&gt;)&lt;/span&gt;" style="shape=parallelogram;perimeter=parallelogramPerimeter;whiteSpace=wrap;html=1;fixedSize=1;" parent="1" vertex="1">
          <mxGeometry x="80" y="350" width="160" height="30" as="geometry" />
        </mxCell>
        <mxCell id="GYAae46NIbWtX9tGU3hh-23" style="edgeStyle=orthogonalEdgeStyle;rounded=0;orthogonalLoop=1;jettySize=auto;html=1;exitX=0.5;exitY=1;exitDx=0;exitDy=0;entryX=0.5;entryY=0;entryDx=0;entryDy=0;" parent="1" source="GYAae46NIbWtX9tGU3hh-11" target="GYAae46NIbWtX9tGU3hh-10" edge="1">
          <mxGeometry relative="1" as="geometry" />
        </mxCell>
        <mxCell id="GYAae46NIbWtX9tGU3hh-11" value="&lt;p class=&quot;MsoNormal&quot;&gt;&lt;font style=&quot;font-size: 11px;&quot;&gt;SetPenColor(clBlack)&lt;/font&gt;&lt;/p&gt;" style="shape=parallelogram;perimeter=parallelogramPerimeter;whiteSpace=wrap;html=1;fixedSize=1;" parent="1" vertex="1">
          <mxGeometry x="80" y="275" width="160" height="30" as="geometry" />
        </mxCell>
        <mxCell id="GYAae46NIbWtX9tGU3hh-22" style="edgeStyle=orthogonalEdgeStyle;rounded=0;orthogonalLoop=1;jettySize=auto;html=1;exitX=0.5;exitY=1;exitDx=0;exitDy=0;entryX=0.5;entryY=0;entryDx=0;entryDy=0;" parent="1" source="GYAae46NIbWtX9tGU3hh-12" target="GYAae46NIbWtX9tGU3hh-11" edge="1">
          <mxGeometry relative="1" as="geometry" />
        </mxCell>
        <mxCell id="GYAae46NIbWtX9tGU3hh-12" value="&lt;font style=&quot;font-size: 11px;&quot;&gt;SetWindowSize(&lt;span style=&quot;font-family: Consolas; color: darkgreen;&quot; lang=&quot;EN-US&quot;&gt;605&lt;/span&gt;&lt;span style=&quot;font-family: Consolas;&quot; lang=&quot;EN-US&quot;&gt;, &lt;/span&gt;&lt;span style=&quot;font-family: Consolas; color: darkgreen;&quot; lang=&quot;EN-US&quot;&gt;605&lt;/span&gt;&lt;span style=&quot;font-family: Consolas;&quot; lang=&quot;EN-US&quot;&gt;)&lt;/span&gt;&lt;/font&gt;" style="shape=parallelogram;perimeter=parallelogramPerimeter;whiteSpace=wrap;html=1;fixedSize=1;" parent="1" vertex="1">
          <mxGeometry x="80" y="205" width="160" height="30" as="geometry" />
        </mxCell>
        <mxCell id="GYAae46NIbWtX9tGU3hh-45" style="edgeStyle=orthogonalEdgeStyle;rounded=0;orthogonalLoop=1;jettySize=auto;html=1;exitX=0.5;exitY=1;exitDx=0;exitDy=0;entryX=0.5;entryY=0;entryDx=0;entryDy=0;" parent="1" source="GYAae46NIbWtX9tGU3hh-13" target="GYAae46NIbWtX9tGU3hh-44" edge="1">
          <mxGeometry relative="1" as="geometry">
            <Array as="points">
              <mxPoint x="160" y="790" />
              <mxPoint x="450" y="790" />
              <mxPoint x="450" y="80" />
              <mxPoint x="600" y="80" />
            </Array>
          </mxGeometry>
        </mxCell>
        <mxCell id="GYAae46NIbWtX9tGU3hh-13" value="&lt;font style=&quot;font-size: 11px;&quot;&gt;l := -&lt;/font&gt;&lt;span style=&quot;font-size:&lt;br/&gt;12.0pt;font-family:Consolas;mso-fareast-font-family:Calibri;mso-fareast-theme-font:&lt;br/&gt;minor-latin;mso-bidi-font-family:Consolas;color:darkgreen;mso-ansi-language:&lt;br/&gt;EN-US;mso-fareast-language:EN-US;mso-bidi-language:AR-SA&quot; lang=&quot;EN-US&quot;&gt;&lt;font style=&quot;font-size: 12px;&quot;&gt;10.0&lt;br&gt;p := &lt;span style=&quot;&quot; lang=&quot;EN-US&quot;&gt;10&lt;br&gt;&lt;/span&gt;mx := &lt;span style=&quot;&quot; lang=&quot;EN-US&quot;&gt;50&lt;br&gt;my := &lt;span style=&quot;&quot; lang=&quot;EN-US&quot;&gt;5&lt;br&gt;&lt;/span&gt;x := l&lt;br&gt;y:=&lt;span style=&quot;&quot; lang=&quot;EN-US&quot;&gt;0.0&lt;/span&gt;&lt;/span&gt;&lt;/font&gt;&lt;br&gt;&lt;/span&gt;" style="rounded=0;whiteSpace=wrap;html=1;" parent="1" vertex="1">
          <mxGeometry x="80" y="670" width="160" height="90" as="geometry" />
        </mxCell>
        <mxCell id="GYAae46NIbWtX9tGU3hh-31" value="&lt;font style=&quot;font-size: 11px;&quot;&gt;размер графического окна&lt;/font&gt;" style="text;html=1;strokeColor=none;fillColor=none;align=center;verticalAlign=middle;whiteSpace=wrap;rounded=0;" parent="1" vertex="1">
          <mxGeometry x="250" y="205" width="180" height="25" as="geometry" />
        </mxCell>
        <mxCell id="GYAae46NIbWtX9tGU3hh-32" value="" style="endArrow=none;dashed=1;html=1;dashPattern=1 3;strokeWidth=2;rounded=0;edgeStyle=orthogonalEdgeStyle;" parent="1" edge="1">
          <mxGeometry width="50" height="50" relative="1" as="geometry">
            <mxPoint x="232.25" y="293.82" as="sourcePoint" />
            <mxPoint x="260" y="294" as="targetPoint" />
          </mxGeometry>
        </mxCell>
        <mxCell id="GYAae46NIbWtX9tGU3hh-33" value="" style="endArrow=none;dashed=1;html=1;dashPattern=1 3;strokeWidth=2;rounded=0;edgeStyle=orthogonalEdgeStyle;" parent="1" edge="1">
          <mxGeometry width="50" height="50" relative="1" as="geometry">
            <mxPoint x="229.5" y="368.82" as="sourcePoint" />
            <mxPoint x="250" y="369" as="targetPoint" />
          </mxGeometry>
        </mxCell>
        <mxCell id="GYAae46NIbWtX9tGU3hh-34" value="" style="endArrow=none;dashed=1;html=1;dashPattern=1 3;strokeWidth=2;rounded=0;edgeStyle=orthogonalEdgeStyle;" parent="1" edge="1">
          <mxGeometry width="50" height="50" relative="1" as="geometry">
            <mxPoint x="229.5" y="450" as="sourcePoint" />
            <mxPoint x="260" y="451" as="targetPoint" />
          </mxGeometry>
        </mxCell>
        <mxCell id="GYAae46NIbWtX9tGU3hh-35" value="" style="endArrow=none;dashed=1;html=1;dashPattern=1 3;strokeWidth=2;rounded=0;edgeStyle=orthogonalEdgeStyle;" parent="1" edge="1">
          <mxGeometry width="50" height="50" relative="1" as="geometry">
            <mxPoint x="229.5" y="530" as="sourcePoint" />
            <mxPoint x="260" y="531" as="targetPoint" />
          </mxGeometry>
        </mxCell>
        <mxCell id="GYAae46NIbWtX9tGU3hh-36" value="" style="strokeWidth=2;html=1;shape=mxgraph.flowchart.annotation_1;align=left;pointerEvents=1;" parent="1" vertex="1">
          <mxGeometry x="260" y="280" width="10" height="25" as="geometry" />
        </mxCell>
        <mxCell id="GYAae46NIbWtX9tGU3hh-37" value="" style="strokeWidth=2;html=1;shape=mxgraph.flowchart.annotation_1;align=left;pointerEvents=1;" parent="1" vertex="1">
          <mxGeometry x="250" y="355" width="10" height="25" as="geometry" />
        </mxCell>
        <mxCell id="GYAae46NIbWtX9tGU3hh-38" value="" style="strokeWidth=2;html=1;shape=mxgraph.flowchart.annotation_1;align=left;pointerEvents=1;" parent="1" vertex="1">
          <mxGeometry x="260" y="425" width="10" height="40" as="geometry" />
        </mxCell>
        <mxCell id="GYAae46NIbWtX9tGU3hh-39" value="" style="strokeWidth=2;html=1;shape=mxgraph.flowchart.annotation_1;align=left;pointerEvents=1;" parent="1" vertex="1">
          <mxGeometry x="260" y="510" width="15" height="35" as="geometry" />
        </mxCell>
        <mxCell id="GYAae46NIbWtX9tGU3hh-40" value="&lt;font style=&quot;font-size: 11px;&quot;&gt;цвет пера для рисования&lt;/font&gt;" style="text;html=1;strokeColor=none;fillColor=none;align=center;verticalAlign=middle;whiteSpace=wrap;rounded=0;" parent="1" vertex="1">
          <mxGeometry x="260" y="275" width="150" height="30" as="geometry" />
        </mxCell>
        <mxCell id="GYAae46NIbWtX9tGU3hh-41" value="&lt;font style=&quot;font-size: 11px;&quot;&gt;толщина пера для рисования&lt;/font&gt;" style="text;html=1;strokeColor=none;fillColor=none;align=center;verticalAlign=middle;whiteSpace=wrap;rounded=0;" parent="1" vertex="1">
          <mxGeometry x="250" y="350" width="170" height="30" as="geometry" />
        </mxCell>
        <mxCell id="GYAae46NIbWtX9tGU3hh-42" value="&lt;font style=&quot;font-size: 11px;&quot;&gt;перемещение пера по указанным координатам&lt;/font&gt;" style="text;html=1;strokeColor=none;fillColor=none;align=center;verticalAlign=middle;whiteSpace=wrap;rounded=0;" parent="1" vertex="1">
          <mxGeometry x="260" y="430" width="150" height="30" as="geometry" />
        </mxCell>
        <mxCell id="GYAae46NIbWtX9tGU3hh-43" value="&lt;font style=&quot;font-size: 11px;&quot;&gt;рисование линии, с текущих координат до указанных&lt;/font&gt;" style="text;html=1;strokeColor=none;fillColor=none;align=center;verticalAlign=middle;whiteSpace=wrap;rounded=0;" parent="1" vertex="1">
          <mxGeometry x="250" y="512.5" width="180" height="30" as="geometry" />
        </mxCell>
        <mxCell id="GYAae46NIbWtX9tGU3hh-50" style="edgeStyle=orthogonalEdgeStyle;rounded=0;orthogonalLoop=1;jettySize=auto;html=1;exitX=0.5;exitY=1;exitDx=0;exitDy=0;entryX=0.5;entryY=0;entryDx=0;entryDy=0;" parent="1" source="GYAae46NIbWtX9tGU3hh-44" target="GYAae46NIbWtX9tGU3hh-46" edge="1">
          <mxGeometry relative="1" as="geometry" />
        </mxCell>
        <mxCell id="GYAae46NIbWtX9tGU3hh-44" value="&lt;font style=&quot;font-size: 14px;&quot;&gt;x&amp;lt;=p&lt;/font&gt;" style="rhombus;whiteSpace=wrap;html=1;" parent="1" vertex="1">
          <mxGeometry x="535" y="110" width="130" height="40" as="geometry" />
        </mxCell>
        <mxCell id="GYAae46NIbWtX9tGU3hh-65" style="edgeStyle=orthogonalEdgeStyle;rounded=0;orthogonalLoop=1;jettySize=auto;html=1;exitX=0.5;exitY=1;exitDx=0;exitDy=0;entryX=0.5;entryY=0;entryDx=0;entryDy=0;" parent="1" source="GYAae46NIbWtX9tGU3hh-46" target="GYAae46NIbWtX9tGU3hh-47" edge="1">
          <mxGeometry relative="1" as="geometry" />
        </mxCell>
        <mxCell id="GYAae46NIbWtX9tGU3hh-46" value="&lt;p class=&quot;MsoNormal&quot;&gt;&lt;font style=&quot;font-size: 14px;&quot;&gt;y := f(x)&lt;/font&gt;&lt;/p&gt;" style="shape=process;whiteSpace=wrap;html=1;backgroundOutline=1;" parent="1" vertex="1">
          <mxGeometry x="530" y="170" width="140" height="40" as="geometry" />
        </mxCell>
        <mxCell id="GYAae46NIbWtX9tGU3hh-66" style="edgeStyle=orthogonalEdgeStyle;rounded=0;orthogonalLoop=1;jettySize=auto;html=1;exitX=0.5;exitY=1;exitDx=0;exitDy=0;entryX=0.5;entryY=0;entryDx=0;entryDy=0;" parent="1" source="GYAae46NIbWtX9tGU3hh-47" target="GYAae46NIbWtX9tGU3hh-49" edge="1">
          <mxGeometry relative="1" as="geometry" />
        </mxCell>
        <mxCell id="GYAae46NIbWtX9tGU3hh-47" value="x1 := x0 + round(x * mx)&lt;br&gt;y1 := y0 - round(y * my)" style="rounded=0;whiteSpace=wrap;html=1;" parent="1" vertex="1">
          <mxGeometry x="530" y="230" width="140" height="40" as="geometry" />
        </mxCell>
        <mxCell id="GYAae46NIbWtX9tGU3hh-53" style="edgeStyle=orthogonalEdgeStyle;rounded=0;orthogonalLoop=1;jettySize=auto;html=1;exitX=0.5;exitY=1;exitDx=0;exitDy=0;" parent="1" source="GYAae46NIbWtX9tGU3hh-48" edge="1">
          <mxGeometry relative="1" as="geometry">
            <Array as="points">
              <mxPoint x="600" y="390" />
              <mxPoint x="510" y="390" />
              <mxPoint x="510" y="80" />
            </Array>
            <mxPoint x="510" y="80" as="targetPoint" />
          </mxGeometry>
        </mxCell>
        <mxCell id="GYAae46NIbWtX9tGU3hh-48" value="&lt;font style=&quot;font-size: 14px;&quot;&gt;x += &lt;span style=&quot;font-size:&lt;br/&gt;12.0pt;font-family:Consolas;mso-fareast-font-family:Calibri;mso-fareast-theme-font:&lt;br/&gt;minor-latin;mso-bidi-font-family:Consolas;color:darkgreen;mso-ansi-language:&lt;br/&gt;EN-US;mso-fareast-language:EN-US;mso-bidi-language:AR-SA&quot; lang=&quot;EN-US&quot;&gt;0.0001&lt;/span&gt;&lt;/font&gt;" style="rounded=0;whiteSpace=wrap;html=1;" parent="1" vertex="1">
          <mxGeometry x="530" y="340" width="140" height="30" as="geometry" />
        </mxCell>
        <mxCell id="GYAae46NIbWtX9tGU3hh-67" style="edgeStyle=orthogonalEdgeStyle;rounded=0;orthogonalLoop=1;jettySize=auto;html=1;exitX=0.5;exitY=1;exitDx=0;exitDy=0;entryX=0.5;entryY=0;entryDx=0;entryDy=0;" parent="1" source="GYAae46NIbWtX9tGU3hh-49" target="GYAae46NIbWtX9tGU3hh-48" edge="1">
          <mxGeometry relative="1" as="geometry" />
        </mxCell>
        <mxCell id="GYAae46NIbWtX9tGU3hh-49" value="setpixel(x1, y1, clred)" style="shape=parallelogram;perimeter=parallelogramPerimeter;whiteSpace=wrap;html=1;fixedSize=1;" parent="1" vertex="1">
          <mxGeometry x="530" y="290" width="140" height="30" as="geometry" />
        </mxCell>
        <mxCell id="GYAae46NIbWtX9tGU3hh-51" value="да" style="text;html=1;strokeColor=none;fillColor=none;align=center;verticalAlign=middle;whiteSpace=wrap;rounded=0;" parent="1" vertex="1">
          <mxGeometry x="590" y="140" width="60" height="30" as="geometry" />
        </mxCell>
        <mxCell id="GYAae46NIbWtX9tGU3hh-56" style="edgeStyle=orthogonalEdgeStyle;rounded=0;orthogonalLoop=1;jettySize=auto;html=1;exitX=0.5;exitY=1;exitDx=0;exitDy=0;entryX=0.5;entryY=0;entryDx=0;entryDy=0;" parent="1" source="GYAae46NIbWtX9tGU3hh-52" target="GYAae46NIbWtX9tGU3hh-54" edge="1">
          <mxGeometry relative="1" as="geometry">
            <Array as="points">
              <mxPoint x="690" y="130" />
              <mxPoint x="690" y="410" />
              <mxPoint x="600" y="410" />
            </Array>
          </mxGeometry>
        </mxCell>
        <mxCell id="GYAae46NIbWtX9tGU3hh-52" value="нет" style="text;html=1;strokeColor=none;fillColor=none;align=center;verticalAlign=middle;whiteSpace=wrap;rounded=0;" parent="1" vertex="1">
          <mxGeometry x="630" y="100" width="60" height="30" as="geometry" />
        </mxCell>
        <mxCell id="GYAae46NIbWtX9tGU3hh-57" style="edgeStyle=orthogonalEdgeStyle;rounded=0;orthogonalLoop=1;jettySize=auto;html=1;exitX=0.5;exitY=1;exitDx=0;exitDy=0;entryX=0.5;entryY=0;entryDx=0;entryDy=0;" parent="1" source="GYAae46NIbWtX9tGU3hh-54" edge="1">
          <mxGeometry relative="1" as="geometry">
            <mxPoint x="600" y="480" as="targetPoint" />
          </mxGeometry>
        </mxCell>
        <mxCell id="GYAae46NIbWtX9tGU3hh-54" value="&lt;font style=&quot;font-size: 14px;&quot;&gt;x := a&lt;/font&gt;" style="rounded=0;whiteSpace=wrap;html=1;" parent="1" vertex="1">
          <mxGeometry x="530" y="430" width="140" height="30" as="geometry" />
        </mxCell>
        <mxCell id="GYAae46NIbWtX9tGU3hh-61" style="edgeStyle=orthogonalEdgeStyle;rounded=0;orthogonalLoop=1;jettySize=auto;html=1;exitX=0.5;exitY=1;exitDx=0;exitDy=0;entryX=0.5;entryY=0;entryDx=0;entryDy=0;" parent="1" target="GYAae46NIbWtX9tGU3hh-59" edge="1">
          <mxGeometry relative="1" as="geometry">
            <mxPoint x="600" y="512.5" as="sourcePoint" />
          </mxGeometry>
        </mxCell>
        <mxCell id="GYAae46NIbWtX9tGU3hh-63" style="edgeStyle=orthogonalEdgeStyle;rounded=0;orthogonalLoop=1;jettySize=auto;html=1;exitX=0.5;exitY=1;exitDx=0;exitDy=0;entryX=0.5;entryY=0;entryDx=0;entryDy=0;" parent="1" source="GYAae46NIbWtX9tGU3hh-58" target="GYAae46NIbWtX9tGU3hh-60" edge="1">
          <mxGeometry relative="1" as="geometry" />
        </mxCell>
        <mxCell id="GYAae46NIbWtX9tGU3hh-58" value="&lt;font style=&quot;font-size: 14px;&quot;&gt;y1 := y0 - round(y * my)&lt;/font&gt;" style="rounded=0;whiteSpace=wrap;html=1;" parent="1" vertex="1">
          <mxGeometry x="530" y="592.5" width="140" height="35" as="geometry" />
        </mxCell>
        <mxCell id="GYAae46NIbWtX9tGU3hh-62" style="edgeStyle=orthogonalEdgeStyle;rounded=0;orthogonalLoop=1;jettySize=auto;html=1;exitX=0.5;exitY=1;exitDx=0;exitDy=0;entryX=0.5;entryY=0;entryDx=0;entryDy=0;" parent="1" source="GYAae46NIbWtX9tGU3hh-59" target="GYAae46NIbWtX9tGU3hh-58" edge="1">
          <mxGeometry relative="1" as="geometry" />
        </mxCell>
        <mxCell id="GYAae46NIbWtX9tGU3hh-59" value="&lt;font style=&quot;font-size: 14px;&quot;&gt;x1 := x0 + round(x * mx)&lt;/font&gt;" style="rounded=0;whiteSpace=wrap;html=1;" parent="1" vertex="1">
          <mxGeometry x="530" y="530" width="140" height="40" as="geometry" />
        </mxCell>
        <mxCell id="GYAae46NIbWtX9tGU3hh-82" style="edgeStyle=orthogonalEdgeStyle;rounded=0;orthogonalLoop=1;jettySize=auto;html=1;exitX=0.5;exitY=1;exitDx=0;exitDy=0;entryX=0.5;entryY=0;entryDx=0;entryDy=0;" parent="1" source="GYAae46NIbWtX9tGU3hh-60" target="GYAae46NIbWtX9tGU3hh-73" edge="1">
          <mxGeometry relative="1" as="geometry">
            <Array as="points">
              <mxPoint x="600" y="710" />
              <mxPoint x="860" y="710" />
              <mxPoint x="860" y="60" />
              <mxPoint x="995" y="60" />
            </Array>
          </mxGeometry>
        </mxCell>
        <mxCell id="GYAae46NIbWtX9tGU3hh-60" value="&lt;font style=&quot;font-size: 14px;&quot;&gt;MoveTo(x1, y1)&lt;/font&gt;" style="shape=parallelogram;perimeter=parallelogramPerimeter;whiteSpace=wrap;html=1;fixedSize=1;" parent="1" vertex="1">
          <mxGeometry x="530" y="644" width="140" height="30" as="geometry" />
        </mxCell>
        <mxCell id="GYAae46NIbWtX9tGU3hh-64" value="" style="endArrow=none;dashed=1;html=1;dashPattern=1 3;strokeWidth=2;rounded=0;edgeStyle=orthogonalEdgeStyle;" parent="1" edge="1">
          <mxGeometry width="50" height="50" relative="1" as="geometry">
            <mxPoint x="660" y="310" as="sourcePoint" />
            <mxPoint x="710" y="310" as="targetPoint" />
          </mxGeometry>
        </mxCell>
        <mxCell id="GYAae46NIbWtX9tGU3hh-68" value="" style="endArrow=none;dashed=1;html=1;dashPattern=1 3;strokeWidth=2;rounded=0;edgeStyle=orthogonalEdgeStyle;" parent="1" edge="1">
          <mxGeometry width="50" height="50" relative="1" as="geometry">
            <mxPoint x="670" y="250" as="sourcePoint" />
            <mxPoint x="710" y="250" as="targetPoint" />
          </mxGeometry>
        </mxCell>
        <mxCell id="GYAae46NIbWtX9tGU3hh-69" value="" style="strokeWidth=2;html=1;shape=mxgraph.flowchart.annotation_1;align=left;pointerEvents=1;" parent="1" vertex="1">
          <mxGeometry x="710" y="290" width="10" height="40" as="geometry" />
        </mxCell>
        <mxCell id="GYAae46NIbWtX9tGU3hh-70" value="&lt;font style=&quot;font-size: 11px;&quot;&gt;установка пикселя определенного цвета&lt;/font&gt;" style="text;html=1;strokeColor=none;fillColor=none;align=center;verticalAlign=middle;whiteSpace=wrap;rounded=0;" parent="1" vertex="1">
          <mxGeometry x="690" y="295" width="170" height="30" as="geometry" />
        </mxCell>
        <mxCell id="GYAae46NIbWtX9tGU3hh-71" value="" style="strokeWidth=2;html=1;shape=mxgraph.flowchart.annotation_1;align=left;pointerEvents=1;" parent="1" vertex="1">
          <mxGeometry x="710" y="230" width="10" height="40" as="geometry" />
        </mxCell>
        <mxCell id="GYAae46NIbWtX9tGU3hh-72" value="&lt;font style=&quot;font-size: 11px;&quot;&gt;округление числа до ближайшего целого&lt;/font&gt;" style="text;html=1;strokeColor=none;fillColor=none;align=center;verticalAlign=middle;whiteSpace=wrap;rounded=0;" parent="1" vertex="1">
          <mxGeometry x="705" y="235" width="140" height="30" as="geometry" />
        </mxCell>
        <mxCell id="GYAae46NIbWtX9tGU3hh-78" style="edgeStyle=orthogonalEdgeStyle;rounded=0;orthogonalLoop=1;jettySize=auto;html=1;exitX=0.5;exitY=1;exitDx=0;exitDy=0;entryX=0.5;entryY=0;entryDx=0;entryDy=0;" parent="1" source="GYAae46NIbWtX9tGU3hh-73" target="GYAae46NIbWtX9tGU3hh-74" edge="1">
          <mxGeometry relative="1" as="geometry" />
        </mxCell>
        <mxCell id="GYAae46NIbWtX9tGU3hh-73" value="&lt;font style=&quot;font-size: 14px;&quot;&gt;h:=(b-a)/n&lt;/font&gt;" style="rounded=0;whiteSpace=wrap;html=1;" parent="1" vertex="1">
          <mxGeometry x="930" y="80" width="130" height="20" as="geometry" />
        </mxCell>
        <mxCell id="GYAae46NIbWtX9tGU3hh-79" style="edgeStyle=orthogonalEdgeStyle;rounded=0;orthogonalLoop=1;jettySize=auto;html=1;exitX=0.5;exitY=1;exitDx=0;exitDy=0;entryX=0.5;entryY=0;entryDx=0;entryDy=0;" parent="1" source="GYAae46NIbWtX9tGU3hh-74" target="GYAae46NIbWtX9tGU3hh-75" edge="1">
          <mxGeometry relative="1" as="geometry" />
        </mxCell>
        <mxCell id="GYAae46NIbWtX9tGU3hh-74" value="&lt;font style=&quot;font-size: 14px;&quot;&gt;x &amp;lt;= b&amp;nbsp;&lt;/font&gt;" style="rhombus;whiteSpace=wrap;html=1;" parent="1" vertex="1">
          <mxGeometry x="930" y="110" width="130" height="40" as="geometry" />
        </mxCell>
        <mxCell id="GYAae46NIbWtX9tGU3hh-80" style="edgeStyle=orthogonalEdgeStyle;rounded=0;orthogonalLoop=1;jettySize=auto;html=1;exitX=0.5;exitY=1;exitDx=0;exitDy=0;" parent="1" source="GYAae46NIbWtX9tGU3hh-75" target="GYAae46NIbWtX9tGU3hh-77" edge="1">
          <mxGeometry relative="1" as="geometry" />
        </mxCell>
        <mxCell id="GYAae46NIbWtX9tGU3hh-75" value="&lt;font style=&quot;font-size: 14px;&quot;&gt;y := f(x)&lt;/font&gt;" style="shape=process;whiteSpace=wrap;html=1;backgroundOutline=1;" parent="1" vertex="1">
          <mxGeometry x="930" y="170" width="130" height="40" as="geometry" />
        </mxCell>
        <mxCell id="GYAae46NIbWtX9tGU3hh-90" style="edgeStyle=orthogonalEdgeStyle;rounded=0;orthogonalLoop=1;jettySize=auto;html=1;exitX=0.5;exitY=1;exitDx=0;exitDy=0;entryX=0.5;entryY=0;entryDx=0;entryDy=0;" parent="1" source="GYAae46NIbWtX9tGU3hh-76" target="GYAae46NIbWtX9tGU3hh-84" edge="1">
          <mxGeometry relative="1" as="geometry" />
        </mxCell>
        <mxCell id="GYAae46NIbWtX9tGU3hh-76" value="y1 := y0 - round(y * my)" style="rounded=0;whiteSpace=wrap;html=1;" parent="1" vertex="1">
          <mxGeometry x="930" y="295" width="130" height="40" as="geometry" />
        </mxCell>
        <mxCell id="GYAae46NIbWtX9tGU3hh-81" style="edgeStyle=orthogonalEdgeStyle;rounded=0;orthogonalLoop=1;jettySize=auto;html=1;exitX=0.5;exitY=1;exitDx=0;exitDy=0;entryX=0.5;entryY=0;entryDx=0;entryDy=0;" parent="1" source="GYAae46NIbWtX9tGU3hh-77" target="GYAae46NIbWtX9tGU3hh-76" edge="1">
          <mxGeometry relative="1" as="geometry" />
        </mxCell>
        <mxCell id="GYAae46NIbWtX9tGU3hh-77" value="x1 := x0 + round(x * mx)" style="rounded=0;whiteSpace=wrap;html=1;" parent="1" vertex="1">
          <mxGeometry x="930" y="235" width="130" height="40" as="geometry" />
        </mxCell>
        <mxCell id="GYAae46NIbWtX9tGU3hh-91" style="edgeStyle=orthogonalEdgeStyle;rounded=0;orthogonalLoop=1;jettySize=auto;html=1;exitX=0.5;exitY=1;exitDx=0;exitDy=0;" parent="1" source="GYAae46NIbWtX9tGU3hh-84" target="GYAae46NIbWtX9tGU3hh-88" edge="1">
          <mxGeometry relative="1" as="geometry" />
        </mxCell>
        <mxCell id="GYAae46NIbWtX9tGU3hh-84" value="setpencolor(clblue)" style="shape=parallelogram;perimeter=parallelogramPerimeter;whiteSpace=wrap;html=1;fixedSize=1;" parent="1" vertex="1">
          <mxGeometry x="930" y="355" width="130" height="35" as="geometry" />
        </mxCell>
        <mxCell id="GYAae46NIbWtX9tGU3hh-94" style="edgeStyle=orthogonalEdgeStyle;rounded=0;orthogonalLoop=1;jettySize=auto;html=1;exitX=0.5;exitY=1;exitDx=0;exitDy=0;entryX=0.5;entryY=0;entryDx=0;entryDy=0;" parent="1" source="GYAae46NIbWtX9tGU3hh-85" target="GYAae46NIbWtX9tGU3hh-86" edge="1">
          <mxGeometry relative="1" as="geometry" />
        </mxCell>
        <mxCell id="GYAae46NIbWtX9tGU3hh-85" value="&lt;font style=&quot;font-size: 11px;&quot;&gt;LineTo(round(x1), y0)&lt;/font&gt;" style="shape=parallelogram;perimeter=parallelogramPerimeter;whiteSpace=wrap;html=1;fixedSize=1;" parent="1" vertex="1">
          <mxGeometry x="930" y="510" width="130" height="40" as="geometry" />
        </mxCell>
        <mxCell id="GYAae46NIbWtX9tGU3hh-95" style="edgeStyle=orthogonalEdgeStyle;rounded=0;orthogonalLoop=1;jettySize=auto;html=1;exitX=0.5;exitY=1;exitDx=0;exitDy=0;entryX=0.5;entryY=0;entryDx=0;entryDy=0;" parent="1" source="GYAae46NIbWtX9tGU3hh-86" target="GYAae46NIbWtX9tGU3hh-89" edge="1">
          <mxGeometry relative="1" as="geometry" />
        </mxCell>
        <mxCell id="GYAae46NIbWtX9tGU3hh-86" value="&lt;font style=&quot;font-size: 11px;&quot;&gt;LineTo(round (x1), y1)&lt;/font&gt;" style="shape=parallelogram;perimeter=parallelogramPerimeter;whiteSpace=wrap;html=1;fixedSize=1;" parent="1" vertex="1">
          <mxGeometry x="930" y="570" width="130" height="40" as="geometry" />
        </mxCell>
        <mxCell id="GYAae46NIbWtX9tGU3hh-93" style="edgeStyle=orthogonalEdgeStyle;rounded=0;orthogonalLoop=1;jettySize=auto;html=1;exitX=0.5;exitY=1;exitDx=0;exitDy=0;entryX=0.5;entryY=0;entryDx=0;entryDy=0;" parent="1" source="GYAae46NIbWtX9tGU3hh-87" target="GYAae46NIbWtX9tGU3hh-85" edge="1">
          <mxGeometry relative="1" as="geometry" />
        </mxCell>
        <mxCell id="GYAae46NIbWtX9tGU3hh-87" value="MoveTo(x1, y1)" style="shape=parallelogram;perimeter=parallelogramPerimeter;whiteSpace=wrap;html=1;fixedSize=1;" parent="1" vertex="1">
          <mxGeometry x="930" y="460" width="130" height="30" as="geometry" />
        </mxCell>
        <mxCell id="GYAae46NIbWtX9tGU3hh-92" style="edgeStyle=orthogonalEdgeStyle;rounded=0;orthogonalLoop=1;jettySize=auto;html=1;exitX=0.5;exitY=1;exitDx=0;exitDy=0;entryX=0.5;entryY=0;entryDx=0;entryDy=0;" parent="1" source="GYAae46NIbWtX9tGU3hh-88" target="GYAae46NIbWtX9tGU3hh-87" edge="1">
          <mxGeometry relative="1" as="geometry" />
        </mxCell>
        <mxCell id="GYAae46NIbWtX9tGU3hh-88" value="&lt;font style=&quot;font-size: 14px;&quot;&gt;lineto(x1, y1)&lt;/font&gt;" style="shape=parallelogram;perimeter=parallelogramPerimeter;whiteSpace=wrap;html=1;fixedSize=1;" parent="1" vertex="1">
          <mxGeometry x="930" y="405" width="130" height="35" as="geometry" />
        </mxCell>
        <mxCell id="GYAae46NIbWtX9tGU3hh-96" style="edgeStyle=orthogonalEdgeStyle;rounded=0;orthogonalLoop=1;jettySize=auto;html=1;exitX=0.5;exitY=1;exitDx=0;exitDy=0;entryX=0;entryY=0.5;entryDx=0;entryDy=0;" parent="1" source="GYAae46NIbWtX9tGU3hh-89" target="GYAae46NIbWtX9tGU3hh-74" edge="1">
          <mxGeometry relative="1" as="geometry">
            <Array as="points">
              <mxPoint x="995" y="690" />
              <mxPoint x="900" y="690" />
              <mxPoint x="900" y="130" />
            </Array>
          </mxGeometry>
        </mxCell>
        <mxCell id="GYAae46NIbWtX9tGU3hh-89" value="&lt;font style=&quot;font-size: 14px;&quot;&gt;x += h&lt;/font&gt;" style="rounded=0;whiteSpace=wrap;html=1;" parent="1" vertex="1">
          <mxGeometry x="930" y="630" width="130" height="30" as="geometry" />
        </mxCell>
        <mxCell id="GYAae46NIbWtX9tGU3hh-97" value="да" style="text;html=1;strokeColor=none;fillColor=none;align=center;verticalAlign=middle;whiteSpace=wrap;rounded=0;" parent="1" vertex="1">
          <mxGeometry x="990" y="140" width="60" height="30" as="geometry" />
        </mxCell>
        <mxCell id="GYAae46NIbWtX9tGU3hh-102" style="edgeStyle=orthogonalEdgeStyle;rounded=0;orthogonalLoop=1;jettySize=auto;html=1;exitX=0.25;exitY=1;exitDx=0;exitDy=0;entryX=0.5;entryY=0;entryDx=0;entryDy=0;" parent="1" source="GYAae46NIbWtX9tGU3hh-98" target="GYAae46NIbWtX9tGU3hh-99" edge="1">
          <mxGeometry relative="1" as="geometry">
            <Array as="points">
              <mxPoint x="1100" y="130" />
              <mxPoint x="1100" y="710" />
              <mxPoint x="995" y="710" />
            </Array>
          </mxGeometry>
        </mxCell>
        <mxCell id="GYAae46NIbWtX9tGU3hh-98" value="нет" style="text;html=1;strokeColor=none;fillColor=none;align=center;verticalAlign=middle;whiteSpace=wrap;rounded=0;" parent="1" vertex="1">
          <mxGeometry x="1040" y="100" width="60" height="30" as="geometry" />
        </mxCell>
        <mxCell id="GYAae46NIbWtX9tGU3hh-104" style="edgeStyle=orthogonalEdgeStyle;rounded=0;orthogonalLoop=1;jettySize=auto;html=1;exitX=0.5;exitY=1;exitDx=0;exitDy=0;entryX=0.5;entryY=0;entryDx=0;entryDy=0;" parent="1" source="GYAae46NIbWtX9tGU3hh-99" target="GYAae46NIbWtX9tGU3hh-103" edge="1">
          <mxGeometry relative="1" as="geometry" />
        </mxCell>
        <mxCell id="GYAae46NIbWtX9tGU3hh-99" value="&lt;font style=&quot;font-size: 11px;&quot;&gt;Вывод(&lt;span style=&quot;font-family: Consolas; color: blue;&quot;&gt;&#39;Значение интеграла по&lt;br/&gt;методу трапеций: &#39;&lt;/span&gt;&lt;span style=&quot;font-family: Consolas;&quot;&gt;, sum&lt;/span&gt;&lt;/font&gt;" style="shape=parallelogram;perimeter=parallelogramPerimeter;whiteSpace=wrap;html=1;fixedSize=1;" parent="1" vertex="1">
          <mxGeometry x="925" y="730" width="140" height="70" as="geometry" />
        </mxCell>
        <mxCell id="GYAae46NIbWtX9tGU3hh-100" style="edgeStyle=orthogonalEdgeStyle;rounded=0;orthogonalLoop=1;jettySize=auto;html=1;exitX=0.5;exitY=1;exitDx=0;exitDy=0;" parent="1" source="GYAae46NIbWtX9tGU3hh-99" target="GYAae46NIbWtX9tGU3hh-99" edge="1">
          <mxGeometry relative="1" as="geometry" />
        </mxCell>
        <mxCell id="GYAae46NIbWtX9tGU3hh-103" value="&lt;font style=&quot;font-size: 14px;&quot;&gt;конец&lt;/font&gt;" style="ellipse;whiteSpace=wrap;html=1;" parent="1" vertex="1">
          <mxGeometry x="935" y="820" width="120" height="30" as="geometry" />
        </mxCell>
        <mxCell id="PrfCRM7beyAqlLezw4e4-1" value="&lt;font style=&quot;font-size: 14px;&quot;&gt;y := f(x)&lt;/font&gt;" style="shape=process;whiteSpace=wrap;html=1;backgroundOutline=1;" parent="1" vertex="1">
          <mxGeometry x="530" y="480" width="140" height="35" as="geometry" />
        </mxCell>
        <mxCell id="dUvdXe2ewjB4PR0map2X-3" value="" style="endArrow=none;dashed=1;html=1;dashPattern=1 3;strokeWidth=2;rounded=0;" edge="1" parent="1" source="GYAae46NIbWtX9tGU3hh-30">
          <mxGeometry width="50" height="50" relative="1" as="geometry">
            <mxPoint x="230" y="220" as="sourcePoint" />
            <mxPoint x="260" y="220" as="targetPoint" />
          </mxGeometry>
        </mxCell>
        <mxCell id="dUvdXe2ewjB4PR0map2X-6" value="" style="endArrow=none;dashed=1;html=1;dashPattern=1 3;strokeWidth=2;rounded=0;" edge="1" parent="1" target="GYAae46NIbWtX9tGU3hh-30">
          <mxGeometry width="50" height="50" relative="1" as="geometry">
            <mxPoint x="230" y="220" as="sourcePoint" />
            <mxPoint x="260" y="220" as="targetPoint" />
          </mxGeometry>
        </mxCell>
        <mxCell id="GYAae46NIbWtX9tGU3hh-30" value="" style="strokeWidth=2;html=1;shape=mxgraph.flowchart.annotation_1;align=left;pointerEvents=1;" parent="1" vertex="1">
          <mxGeometry x="260" y="210" width="10" height="20" as="geometry" />
        </mxCell>
      </root>
    </mxGraphModel>
  </diagram>
</mxfile>
